<?xml version="1.0" encoding="UTF-8"?>
<svg xmlns="http://www.w3.org/2000/svg" xmlns:xlink="http://www.w3.org/1999/xlink" width="130px" height="43px" viewBox="0 0 130 43" version="1.1">
<g id="surface1">
<path style=" stroke:none;fill-rule:nonzero;fill:rgb(0%,0%,0%);fill-opacity:1;" d="M 32.238281 6.621094 C 33.605469 8.128906 33.738281 8.195312 35.332031 8.128906 L 36.960938 8.0625 L 35.332031 7.964844 C 33.964844 7.832031 33.476562 7.605469 32.238281 6.457031 L 30.773438 5.078125 Z M 32.238281 6.621094 "/>
<path style=" stroke:none;fill-rule:nonzero;fill:rgb(0%,0%,0%);fill-opacity:1;" d="M 13.9375 8.09375 C 16.152344 8.160156 19.667969 8.160156 21.753906 8.09375 C 23.835938 8.0625 22.046875 7.996094 17.746094 7.996094 C 13.449219 7.996094 11.722656 8.0625 13.9375 8.09375 Z M 13.9375 8.09375 "/>
<path style=" stroke:none;fill-rule:nonzero;fill:rgb(0%,0%,0%);fill-opacity:1;" d="M 8.726562 8.421875 C 8.957031 8.519531 9.25 8.488281 9.347656 8.390625 C 9.476562 8.292969 9.28125 8.195312 8.921875 8.226562 C 8.566406 8.226562 8.46875 8.324219 8.726562 8.421875 Z M 8.726562 8.421875 "/>
<path style=" stroke:none;fill-rule:nonzero;fill:rgb(0%,0%,0%);fill-opacity:1;" d="M 38.035156 8.421875 C 38.265625 8.519531 38.558594 8.488281 38.65625 8.390625 C 38.785156 8.292969 38.589844 8.195312 38.230469 8.226562 C 37.875 8.226562 37.777344 8.324219 38.035156 8.421875 Z M 38.035156 8.421875 "/>
<path style=" stroke:none;fill-rule:nonzero;fill:rgb(0%,0%,0%);fill-opacity:1;" d="M 6.609375 9.175781 C 5.113281 10.0625 5.277344 10.292969 6.773438 9.4375 C 8.273438 8.554688 8.335938 8.519531 7.945312 8.519531 C 7.78125 8.519531 7.164062 8.816406 6.609375 9.175781 Z M 6.609375 9.175781 "/>
<path style=" stroke:none;fill-rule:nonzero;fill:rgb(0%,0%,0%);fill-opacity:1;" d="M 42.335938 9.929688 C 42.335938 10.027344 42.726562 10.324219 43.179688 10.652344 C 43.667969 10.945312 43.929688 11.046875 43.832031 10.847656 C 43.605469 10.488281 42.335938 9.703125 42.335938 9.929688 Z M 42.335938 9.929688 "/>
<path style=" stroke:none;fill-rule:nonzero;fill:rgb(0%,0%,0%);fill-opacity:1;" d="M 4.527344 10.71875 C 4.101562 11.242188 4.136719 11.273438 4.65625 10.847656 C 4.949219 10.617188 5.210938 10.355469 5.210938 10.292969 C 5.210938 10.027344 4.949219 10.191406 4.527344 10.71875 Z M 4.527344 10.71875 "/>
<path style=" stroke:none;fill-rule:nonzero;fill:rgb(0%,0%,0%);fill-opacity:1;" d="M 44.289062 11.242188 C 44.289062 11.308594 44.777344 11.765625 45.363281 12.324219 L 46.40625 13.273438 L 45.460938 12.191406 C 44.550781 11.207031 44.289062 10.980469 44.289062 11.242188 Z M 44.289062 11.242188 "/>
<path style=" stroke:none;fill-rule:nonzero;fill:rgb(0%,0%,0%);fill-opacity:1;" d="M 3.679688 11.863281 C 3.191406 12.519531 2.867188 13.109375 3.027344 13.109375 C 3.125 13.109375 3.417969 12.75 3.710938 12.289062 C 4.265625 11.4375 4.234375 11.144531 3.679688 11.863281 Z M 3.679688 11.863281 "/>
<path style=" stroke:none;fill-rule:nonzero;fill:rgb(0%,0%,0%);fill-opacity:1;" d="M 37.15625 13.632812 C 37.15625 13.996094 37.253906 14.09375 37.351562 13.832031 C 37.449219 13.601562 37.417969 13.304688 37.320312 13.207031 C 37.222656 13.078125 37.125 13.273438 37.15625 13.632812 Z M 37.15625 13.632812 "/>
<path style=" stroke:none;fill-rule:nonzero;fill:rgb(0%,0%,0%);fill-opacity:1;" d="M 46.242188 13.570312 C 46.242188 13.632812 46.503906 13.894531 46.828125 14.125 C 47.316406 14.550781 47.351562 14.519531 46.925781 13.996094 C 46.503906 13.46875 46.242188 13.304688 46.242188 13.570312 Z M 46.242188 13.570312 "/>
<path style=" stroke:none;fill-rule:nonzero;fill:rgb(0%,0%,0%);fill-opacity:1;" d="M 38.035156 14.648438 C 38.265625 14.75 38.558594 14.714844 38.65625 14.617188 C 38.785156 14.519531 38.589844 14.421875 38.230469 14.453125 C 37.875 14.453125 37.777344 14.550781 38.035156 14.648438 Z M 38.035156 14.648438 "/>
<path style=" stroke:none;fill-rule:nonzero;fill:rgb(0%,0%,0%);fill-opacity:1;" d="M 47.773438 15.894531 C 48.066406 16.519531 48.359375 16.976562 48.457031 16.910156 C 48.585938 16.746094 47.609375 14.75 47.382812 14.75 C 47.285156 14.75 47.480469 15.273438 47.773438 15.894531 Z M 47.773438 15.894531 "/>
<path style=" stroke:none;fill-rule:nonzero;fill:rgb(0%,0%,0%);fill-opacity:1;" d="M 2.019531 16.550781 C 2.019531 17.074219 2.085938 17.273438 2.183594 16.945312 C 2.246094 16.648438 2.246094 16.191406 2.183594 15.960938 C 2.085938 15.765625 2.019531 15.992188 2.019531 16.550781 Z M 2.019531 16.550781 "/>
<path style=" stroke:none;fill-rule:nonzero;fill:rgb(0%,0%,0%);fill-opacity:1;" d="M 21.820312 17.171875 C 21.820312 17.273438 22.113281 17.5 22.46875 17.699219 C 22.828125 17.894531 23.121094 17.960938 23.121094 17.894531 C 23.121094 17.796875 22.828125 17.566406 22.46875 17.371094 C 22.113281 17.171875 21.820312 17.109375 21.820312 17.171875 Z M 21.820312 17.171875 "/>
<path style=" stroke:none;fill-rule:nonzero;fill:rgb(0%,0%,0%);fill-opacity:1;" d="M 10.324219 17.601562 C 10.191406 17.699219 10.09375 18.648438 10.09375 19.664062 C 10.09375 21.238281 9.964844 21.632812 9.378906 22.089844 C 8.628906 22.613281 8.628906 22.613281 9.542969 22.222656 C 10.355469 21.859375 10.421875 21.730469 10.421875 19.796875 L 10.421875 17.730469 L 12.472656 17.601562 L 14.492188 17.5 L 12.503906 17.4375 C 11.429688 17.402344 10.421875 17.46875 10.324219 17.601562 Z M 10.324219 17.601562 "/>
<path style=" stroke:none;fill-rule:nonzero;fill:rgb(0%,0%,0%);fill-opacity:1;" d="M 56.988281 21.632812 L 56.988281 25.890625 L 59.757812 25.890625 C 62.296875 25.890625 62.523438 25.828125 62.523438 25.234375 C 62.523438 24.644531 62.296875 24.582031 60.734375 24.582031 L 58.941406 24.582031 L 58.941406 23.433594 C 58.941406 22.285156 58.941406 22.285156 60.410156 22.285156 C 61.644531 22.285156 61.875 22.1875 61.875 21.632812 C 61.875 21.074219 61.644531 20.976562 60.410156 20.976562 C 59.007812 20.976562 58.941406 20.941406 58.941406 19.992188 C 58.941406 19.042969 58.976562 19.007812 60.570312 19.007812 C 62.101562 19.007812 62.199219 18.945312 62.199219 18.191406 C 62.199219 17.371094 62.167969 17.371094 59.59375 17.371094 L 56.988281 17.371094 Z M 56.988281 21.632812 "/>
<path style=" stroke:none;fill-rule:nonzero;fill:rgb(0%,0%,0%);fill-opacity:1;" d="M 65.78125 21.632812 L 65.78125 25.890625 L 68.386719 25.890625 C 70.765625 25.890625 70.992188 25.828125 70.992188 25.234375 C 70.992188 24.679688 70.765625 24.582031 69.363281 24.582031 L 67.734375 24.582031 L 67.734375 17.371094 L 65.78125 17.371094 Z M 65.78125 21.632812 "/>
<path style=" stroke:none;fill-rule:nonzero;fill:rgb(0%,0%,0%);fill-opacity:1;" d="M 74.25 21.632812 L 74.25 25.890625 L 76.855469 25.890625 C 79.230469 25.890625 79.457031 25.828125 79.457031 25.269531 C 79.457031 24.710938 79.199219 24.613281 77.765625 24.515625 C 76.105469 24.417969 76.039062 24.382812 76.039062 23.433594 C 76.039062 22.515625 76.136719 22.449219 77.441406 22.351562 C 78.515625 22.253906 78.808594 22.121094 78.808594 21.632812 C 78.808594 21.140625 78.515625 21.007812 77.441406 20.910156 C 76.167969 20.8125 76.039062 20.714844 75.941406 19.894531 C 75.84375 19.007812 75.875 19.007812 77.636719 19.007812 C 79.359375 19.007812 79.457031 18.976562 79.457031 18.191406 C 79.457031 17.371094 79.425781 17.371094 76.855469 17.371094 L 74.25 17.371094 Z M 74.25 21.632812 "/>
<path style=" stroke:none;fill-rule:nonzero;fill:rgb(0%,0%,0%);fill-opacity:1;" d="M 83.042969 21.632812 L 83.042969 25.890625 L 83.824219 25.890625 C 84.539062 25.890625 84.636719 25.726562 84.734375 24.484375 L 84.832031 23.105469 L 86.429688 22.910156 C 88.25 22.710938 89.226562 21.796875 89.226562 20.253906 C 89.226562 18.191406 87.957031 17.371094 84.800781 17.371094 L 83.042969 17.371094 Z M 87.210938 19.535156 C 87.664062 20.351562 87.308594 21.269531 86.429688 21.5 C 85.15625 21.828125 84.667969 21.433594 84.667969 20.15625 C 84.667969 19.074219 84.734375 19.007812 85.808594 19.007812 C 86.492188 19.007812 87.015625 19.207031 87.210938 19.535156 Z M 87.210938 19.535156 "/>
<path style=" stroke:none;fill-rule:nonzero;fill:rgb(0%,0%,0%);fill-opacity:1;" d="M 92.484375 21.632812 L 92.484375 25.890625 L 93.265625 25.890625 C 94.015625 25.890625 94.082031 25.761719 94.179688 24.15625 L 94.277344 22.449219 L 97.207031 22.449219 L 97.304688 24.15625 C 97.402344 25.828125 97.433594 25.890625 98.378906 25.890625 L 99.324219 25.890625 L 99.324219 17.371094 L 98.347656 17.371094 C 97.402344 17.371094 97.371094 17.402344 97.371094 19.007812 L 97.371094 20.648438 L 94.113281 20.648438 L 94.113281 19.007812 C 94.113281 17.46875 94.046875 17.371094 93.300781 17.371094 L 92.484375 17.371094 Z M 92.484375 21.632812 "/>
<path style=" stroke:none;fill-rule:nonzero;fill:rgb(0%,0%,0%);fill-opacity:1;" d="M 104.4375 17.601562 C 104.273438 17.925781 101.929688 25.433594 101.929688 25.695312 C 101.929688 25.792969 102.351562 25.890625 102.875 25.890625 C 103.65625 25.890625 103.816406 25.726562 104.011719 24.875 C 104.175781 23.925781 104.273438 23.890625 105.574219 23.992188 C 106.75 24.089844 106.976562 24.21875 107.140625 24.910156 C 107.269531 25.53125 107.5625 25.761719 108.34375 25.828125 L 109.386719 25.925781 L 108.246094 22.386719 C 107.628906 20.453125 107.042969 18.515625 106.945312 18.089844 C 106.78125 17.535156 106.519531 17.371094 105.675781 17.371094 C 105.054688 17.371094 104.5 17.46875 104.4375 17.601562 Z M 106.488281 22.351562 C 106.488281 22.648438 105.054688 22.710938 104.792969 22.417969 C 104.597656 22.253906 104.957031 20.484375 105.414062 19.335938 C 105.574219 18.945312 106.457031 21.46875 106.488281 22.351562 Z M 106.488281 22.351562 "/>
<path style=" stroke:none;fill-rule:nonzero;fill:rgb(0%,0%,0%);fill-opacity:1;" d="M 112.023438 21.632812 L 112.023438 25.890625 L 112.839844 25.890625 C 113.652344 25.890625 113.652344 25.859375 113.683594 23.007812 L 113.683594 20.15625 L 115.148438 23.007812 C 116.484375 25.664062 116.679688 25.890625 117.558594 25.890625 L 118.535156 25.890625 L 118.535156 17.371094 L 116.84375 17.371094 L 116.972656 20.320312 C 117.007812 21.957031 117.039062 23.269531 117.007812 23.269531 C 116.941406 23.269531 116.257812 21.925781 115.445312 20.320312 C 114.074219 17.601562 113.914062 17.371094 113 17.371094 L 112.023438 17.371094 Z M 112.023438 21.632812 "/>
<path style=" stroke:none;fill-rule:nonzero;fill:rgb(0%,0%,0%);fill-opacity:1;" d="M 121.792969 18.191406 C 121.792969 18.910156 121.925781 19.007812 122.933594 19.007812 L 124.074219 19.007812 L 124.074219 25.890625 L 126.027344 25.890625 L 126.027344 19.007812 L 127.167969 19.007812 C 128.175781 19.007812 128.304688 18.910156 128.304688 18.191406 L 128.304688 17.371094 L 121.792969 17.371094 Z M 121.792969 18.191406 "/>
<path style=" stroke:none;fill-rule:nonzero;fill:rgb(0%,0%,0%);fill-opacity:1;" d="M 48.878906 18.550781 C 48.878906 18.910156 48.976562 19.007812 49.074219 18.746094 C 49.171875 18.515625 49.140625 18.222656 49.042969 18.125 C 48.945312 17.992188 48.847656 18.191406 48.878906 18.550781 Z M 48.878906 18.550781 "/>
<path style=" stroke:none;fill-rule:nonzero;fill:rgb(0%,0%,0%);fill-opacity:1;" d="M 25.402344 19.46875 C 25.402344 19.566406 25.695312 19.796875 26.050781 19.992188 C 26.410156 20.1875 26.703125 20.253906 26.703125 20.1875 C 26.703125 20.089844 26.410156 19.859375 26.050781 19.664062 C 25.695312 19.46875 25.402344 19.402344 25.402344 19.46875 Z M 25.402344 19.46875 "/>
<path style=" stroke:none;fill-rule:nonzero;fill:rgb(0%,0%,0%);fill-opacity:1;" d="M 49.207031 19.859375 C 49.207031 20.222656 49.304688 20.320312 49.402344 20.058594 C 49.5 19.828125 49.464844 19.535156 49.367188 19.433594 C 49.269531 19.304688 49.171875 19.5 49.207031 19.859375 Z M 49.207031 19.859375 "/>
<path style=" stroke:none;fill-rule:nonzero;fill:rgb(0%,0%,0%);fill-opacity:1;" d="M 43.3125 20.125 C 43.3125 20.1875 43.539062 20.351562 43.832031 20.453125 C 44.09375 20.550781 44.222656 20.515625 44.125 20.320312 C 43.929688 19.992188 43.3125 19.859375 43.3125 20.125 Z M 43.3125 20.125 "/>
<path style=" stroke:none;fill-rule:nonzero;fill:rgb(0%,0%,0%);fill-opacity:1;" d="M 44.613281 20.777344 C 44.613281 20.84375 44.875 21.105469 45.199219 21.335938 C 45.6875 21.761719 45.722656 21.730469 45.296875 21.203125 C 44.875 20.679688 44.613281 20.515625 44.613281 20.777344 Z M 44.613281 20.777344 "/>
<path style=" stroke:none;fill-rule:nonzero;fill:rgb(0%,0%,0%);fill-opacity:1;" d="M 49.597656 22.613281 C 49.597656 23.433594 49.660156 23.761719 49.726562 23.335938 C 49.792969 22.941406 49.792969 22.285156 49.726562 21.859375 C 49.660156 21.46875 49.597656 21.796875 49.597656 22.613281 Z M 49.597656 22.613281 "/>
<path style=" stroke:none;fill-rule:nonzero;fill:rgb(0%,0%,0%);fill-opacity:1;" d="M 28.984375 21.761719 C 28.984375 21.859375 29.277344 22.089844 29.632812 22.285156 C 29.992188 22.484375 30.285156 22.546875 30.285156 22.484375 C 30.285156 22.386719 29.992188 22.15625 29.632812 21.957031 C 29.277344 21.761719 28.984375 21.695312 28.984375 21.761719 Z M 28.984375 21.761719 "/>
<path style=" stroke:none;fill-rule:nonzero;fill:rgb(0%,0%,0%);fill-opacity:1;" d="M 38.070312 22.1875 C 37.644531 22.710938 37.679688 22.746094 38.199219 22.320312 C 38.492188 22.089844 38.753906 21.828125 38.753906 21.761719 C 38.753906 21.5 38.492188 21.664062 38.070312 22.1875 Z M 38.070312 22.1875 "/>
<path style=" stroke:none;fill-rule:nonzero;fill:rgb(0%,0%,0%);fill-opacity:1;" d="M 7.621094 30.316406 C 7.621094 34.28125 7.683594 35.855469 7.71875 33.824219 C 7.78125 31.792969 7.78125 28.546875 7.71875 26.613281 C 7.683594 24.679688 7.621094 26.351562 7.621094 30.316406 Z M 7.621094 30.316406 "/>
<path style=" stroke:none;fill-rule:nonzero;fill:rgb(0%,0%,0%);fill-opacity:1;" d="M 31.394531 30.152344 C 31.394531 34.019531 31.457031 35.625 31.492188 33.691406 C 31.554688 31.726562 31.554688 28.578125 31.492188 26.644531 C 31.457031 24.679688 31.394531 26.285156 31.394531 30.152344 Z M 31.394531 30.152344 "/>
<path style=" stroke:none;fill-rule:nonzero;fill:rgb(0%,0%,0%);fill-opacity:1;" d="M 46.308594 24.253906 C 46.308594 24.710938 46.371094 24.875 46.46875 24.644531 C 46.535156 24.449219 46.535156 24.054688 46.46875 23.828125 C 46.371094 23.628906 46.308594 23.792969 46.308594 24.253906 Z M 46.308594 24.253906 "/>
<path style=" stroke:none;fill-rule:nonzero;fill:rgb(0%,0%,0%);fill-opacity:1;" d="M 49.207031 25.105469 C 49.207031 25.464844 49.304688 25.5625 49.402344 25.300781 C 49.5 25.074219 49.464844 24.777344 49.367188 24.679688 C 49.269531 24.546875 49.171875 24.746094 49.207031 25.105469 Z M 49.207031 25.105469 "/>
<path style=" stroke:none;fill-rule:nonzero;fill:rgb(0%,0%,0%);fill-opacity:1;" d="M 40.445312 26.613281 C 40.21875 26.84375 40.085938 27.367188 40.085938 27.824219 C 40.121094 28.613281 40.152344 28.613281 40.347656 27.695312 C 40.511719 26.90625 40.738281 26.710938 41.421875 26.710938 C 41.910156 26.742188 42.203125 26.613281 42.140625 26.480469 C 41.878906 26.089844 40.902344 26.152344 40.445312 26.613281 Z M 40.445312 26.613281 "/>
<path style=" stroke:none;fill-rule:nonzero;fill:rgb(0%,0%,0%);fill-opacity:1;" d="M 17.257812 31.300781 L 17.257812 36.050781 L 21.820312 36.050781 L 21.820312 26.546875 L 17.257812 26.546875 Z M 17.257812 31.300781 "/>
<path style=" stroke:none;fill-rule:nonzero;fill:rgb(0%,0%,0%);fill-opacity:1;" d="M 48.035156 27.726562 C 47.742188 28.21875 47.644531 28.480469 47.839844 28.382812 C 48.195312 28.152344 48.976562 26.875 48.75 26.875 C 48.652344 26.875 48.359375 27.269531 48.035156 27.726562 Z M 48.035156 27.726562 "/>
<path style=" stroke:none;fill-rule:nonzero;fill:rgb(0%,0%,0%);fill-opacity:1;" d="M 43.246094 27.433594 C 43.441406 27.496094 43.832031 27.496094 44.0625 27.433594 C 44.257812 27.332031 44.09375 27.269531 43.636719 27.269531 C 43.179688 27.269531 43.019531 27.332031 43.246094 27.433594 Z M 43.246094 27.433594 "/>
<path style=" stroke:none;fill-rule:nonzero;fill:rgb(0%,0%,0%);fill-opacity:1;" d="M 41.097656 29.660156 C 41.585938 30.183594 42.042969 30.546875 42.105469 30.449219 C 42.203125 30.382812 41.78125 29.957031 41.226562 29.53125 L 40.21875 28.742188 Z M 41.097656 29.660156 "/>
<path style=" stroke:none;fill-rule:nonzero;fill:rgb(0%,0%,0%);fill-opacity:1;" d="M 45.589844 29.988281 C 45.136719 30.25 44.941406 30.449219 45.136719 30.480469 C 45.296875 30.480469 45.753906 30.25 46.113281 29.988281 C 46.894531 29.398438 46.632812 29.367188 45.589844 29.988281 Z M 45.589844 29.988281 "/>
<path style=" stroke:none;fill-rule:nonzero;fill:rgb(0%,0%,0%);fill-opacity:1;" d="M 43.082031 30.710938 C 43.375 30.773438 43.898438 30.773438 44.222656 30.710938 C 44.515625 30.609375 44.257812 30.546875 43.636719 30.546875 C 43.019531 30.546875 42.757812 30.609375 43.082031 30.710938 Z M 43.082031 30.710938 "/>
<path style=" stroke:none;fill-rule:nonzero;fill:rgb(0%,0%,0%);fill-opacity:1;" d="M 80.371094 32.117188 C 80.207031 32.675781 80.46875 34.742188 80.730469 34.742188 C 80.957031 34.742188 80.925781 32.152344 80.664062 31.921875 C 80.566406 31.824219 80.4375 31.921875 80.371094 32.117188 Z M 80.371094 32.117188 "/>
<path style=" stroke:none;fill-rule:nonzero;fill:rgb(0%,0%,0%);fill-opacity:1;" d="M 69.101562 33.332031 C 69.167969 33.988281 69.394531 34.578125 69.625 34.609375 C 69.851562 34.640625 69.886719 34.609375 69.6875 34.511719 C 69.234375 34.28125 69.265625 32.871094 69.753906 32.707031 C 69.984375 32.609375 69.917969 32.480469 69.558594 32.347656 C 69.070312 32.152344 69.003906 32.28125 69.101562 33.332031 Z M 69.101562 33.332031 "/>
<path style=" stroke:none;fill-rule:nonzero;fill:rgb(0%,0%,0%);fill-opacity:1;" d="M 56.664062 33.136719 C 56.238281 33.921875 56.726562 34.773438 57.609375 34.707031 C 58.0625 34.675781 58.0625 34.640625 57.574219 34.511719 C 56.566406 34.25 56.597656 33.101562 57.640625 32.675781 C 58.03125 32.546875 58.03125 32.480469 57.574219 32.480469 C 57.25 32.445312 56.859375 32.742188 56.664062 33.136719 Z M 56.664062 33.136719 "/>
<path style=" stroke:none;fill-rule:nonzero;fill:rgb(0%,0%,0%);fill-opacity:1;" d="M 59.59375 32.9375 C 59.105469 33.527344 59.367188 34.347656 60.113281 34.640625 C 60.898438 34.9375 61.613281 33.855469 61.191406 33.070312 C 60.800781 32.316406 60.148438 32.28125 59.59375 32.9375 Z M 60.996094 33.167969 C 61.191406 33.789062 60.898438 34.414062 60.410156 34.414062 C 59.820312 34.414062 59.496094 33.855469 59.722656 33.265625 C 59.953125 32.675781 60.800781 32.609375 60.996094 33.167969 Z M 60.996094 33.167969 "/>
<path style=" stroke:none;fill-rule:nonzero;fill:rgb(0%,0%,0%);fill-opacity:1;" d="M 63.273438 32.675781 C 63.046875 32.742188 62.882812 33.296875 62.882812 33.855469 L 62.914062 34.90625 L 63.144531 33.921875 C 63.242188 33.363281 63.566406 32.9375 63.828125 32.9375 C 64.089844 32.9375 64.414062 33.363281 64.511719 33.921875 C 64.675781 34.640625 64.738281 34.707031 64.773438 34.183594 C 64.835938 32.707031 64.347656 32.21875 63.273438 32.675781 Z M 63.273438 32.675781 "/>
<path style=" stroke:none;fill-rule:nonzero;fill:rgb(0%,0%,0%);fill-opacity:1;" d="M 66.238281 32.808594 C 66.105469 33.035156 66.367188 33.460938 66.792969 33.789062 L 67.574219 34.414062 L 66.757812 34.445312 C 66.140625 34.480469 66.105469 34.511719 66.5625 34.640625 C 66.890625 34.742188 67.3125 34.640625 67.539062 34.414062 C 67.800781 34.152344 67.703125 33.890625 67.117188 33.460938 C 66.367188 32.871094 66.367188 32.839844 66.953125 32.675781 C 67.441406 32.546875 67.476562 32.511719 67.019531 32.480469 C 66.726562 32.480469 66.367188 32.609375 66.238281 32.808594 Z M 66.238281 32.808594 "/>
<path style=" stroke:none;fill-rule:nonzero;fill:rgb(0%,0%,0%);fill-opacity:1;" d="M 74.019531 33.496094 C 74.054688 34.347656 74.25 34.609375 74.835938 34.675781 C 75.453125 34.773438 75.550781 34.640625 75.519531 33.691406 C 75.453125 32.707031 75.453125 32.675781 75.324219 33.496094 C 75.128906 34.707031 74.347656 34.675781 74.117188 33.429688 C 73.921875 32.445312 73.921875 32.445312 74.019531 33.496094 Z M 74.019531 33.496094 "/>
<path style=" stroke:none;fill-rule:nonzero;fill:rgb(0%,0%,0%);fill-opacity:1;" d="M 77.503906 32.9375 C 76.953125 33.625 77.40625 34.742188 78.253906 34.707031 L 78.96875 34.707031 L 78.253906 34.414062 C 77.832031 34.25 77.503906 33.890625 77.503906 33.59375 C 77.503906 33.296875 77.832031 32.9375 78.253906 32.773438 C 78.742188 32.578125 78.808594 32.480469 78.449219 32.480469 C 78.15625 32.445312 77.734375 32.675781 77.503906 32.9375 Z M 77.503906 32.9375 "/>
<path style=" stroke:none;fill-rule:nonzero;fill:rgb(0%,0%,0%);fill-opacity:1;" d="M 82.8125 33.59375 C 82.8125 34.316406 82.878906 34.578125 82.945312 34.152344 C 83.007812 33.757812 83.007812 33.167969 82.945312 32.839844 C 82.84375 32.546875 82.78125 32.871094 82.8125 33.59375 Z M 82.8125 33.59375 "/>
<path style=" stroke:none;fill-rule:nonzero;fill:rgb(0%,0%,0%);fill-opacity:1;" d="M 85.058594 32.742188 C 84.800781 32.871094 84.667969 33.363281 84.734375 33.789062 C 84.800781 34.378906 85.027344 34.578125 85.644531 34.578125 C 86.265625 34.578125 86.492188 34.378906 86.558594 33.789062 C 86.65625 33.136719 86.199219 32.445312 85.644531 32.445312 C 85.546875 32.445312 85.289062 32.578125 85.058594 32.742188 Z M 86.234375 33.691406 C 86.332031 34.25 86.167969 34.414062 85.679688 34.414062 C 85.222656 34.414062 84.996094 34.214844 84.996094 33.824219 C 84.996094 32.578125 86.070312 32.480469 86.234375 33.691406 Z M 86.234375 33.691406 "/>
<path style=" stroke:none;fill-rule:nonzero;fill:rgb(0%,0%,0%);fill-opacity:1;" d="M 89.128906 32.675781 C 89.324219 32.808594 89.554688 33.398438 89.652344 33.921875 C 89.78125 34.804688 89.816406 34.804688 89.75 33.789062 C 89.75 33.101562 89.523438 32.609375 89.226562 32.546875 C 88.902344 32.445312 88.871094 32.480469 89.128906 32.675781 Z M 89.128906 32.675781 "/>
<path style=" stroke:none;fill-rule:nonzero;fill:rgb(0%,0%,0%);fill-opacity:1;" d="M 93.429688 32.972656 C 92.910156 33.59375 93.398438 34.542969 94.308594 34.640625 C 94.796875 34.707031 94.765625 34.675781 94.210938 34.414062 C 93.203125 33.988281 93.332031 33.101562 94.4375 32.675781 C 94.863281 32.546875 94.828125 32.480469 94.40625 32.480469 C 94.113281 32.445312 93.691406 32.675781 93.429688 32.972656 Z M 93.429688 32.972656 "/>
<path style=" stroke:none;fill-rule:nonzero;fill:rgb(0%,0%,0%);fill-opacity:1;" d="M 96.425781 32.90625 C 95.804688 33.660156 96.296875 34.804688 97.140625 34.675781 C 97.695312 34.609375 97.859375 34.347656 97.859375 33.59375 C 97.859375 32.480469 97.078125 32.117188 96.425781 32.90625 Z M 97.695312 33.59375 C 97.695312 34.414062 96.945312 34.742188 96.554688 34.085938 C 96.230469 33.5625 96.621094 32.773438 97.207031 32.773438 C 97.5 32.773438 97.695312 33.070312 97.695312 33.59375 Z M 97.695312 33.59375 "/>
<path style=" stroke:none;fill-rule:nonzero;fill:rgb(0%,0%,0%);fill-opacity:1;" d="M 99.683594 33.757812 C 99.714844 34.871094 99.714844 34.871094 99.941406 33.953125 C 100.234375 32.546875 100.953125 32.480469 100.984375 33.824219 L 101.015625 34.90625 L 101.246094 33.921875 C 101.34375 33.363281 101.667969 32.9375 101.929688 32.9375 C 102.1875 32.9375 102.515625 33.363281 102.613281 33.921875 C 102.808594 34.804688 102.839844 34.804688 102.875 34.085938 C 102.90625 32.839844 102.546875 32.546875 101.050781 32.578125 C 99.648438 32.578125 99.648438 32.609375 99.683594 33.757812 Z M 99.683594 33.757812 "/>
<path style=" stroke:none;fill-rule:nonzero;fill:rgb(0%,0%,0%);fill-opacity:1;" d="M 105.640625 32.9375 C 106.195312 33.496094 106 34.414062 105.347656 34.414062 C 105.085938 34.414062 104.828125 34.019531 104.761719 33.496094 C 104.695312 33.003906 104.632812 33.332031 104.632812 34.25 C 104.597656 35.132812 104.664062 35.625 104.761719 35.296875 C 104.828125 35.003906 105.121094 34.742188 105.347656 34.742188 C 106.03125 34.742188 106.488281 33.691406 106.128906 33.003906 C 105.933594 32.707031 105.640625 32.445312 105.476562 32.445312 C 105.28125 32.445312 105.347656 32.675781 105.640625 32.9375 Z M 105.640625 32.9375 "/>
<path style=" stroke:none;fill-rule:nonzero;fill:rgb(0%,0%,0%);fill-opacity:1;" d="M 108.539062 32.644531 C 109.289062 32.871094 109.257812 33.296875 108.441406 33.527344 C 107.628906 33.726562 107.5625 34.742188 108.375 34.707031 C 108.703125 34.707031 108.765625 34.609375 108.539062 34.511719 C 107.953125 34.28125 108.019531 33.757812 108.570312 33.757812 C 108.832031 33.757812 109.125 34.019531 109.222656 34.316406 C 109.289062 34.640625 109.355469 34.378906 109.320312 33.757812 C 109.257812 32.871094 109.09375 32.609375 108.605469 32.546875 C 108.082031 32.511719 108.082031 32.511719 108.539062 32.644531 Z M 108.539062 32.644531 "/>
<path style=" stroke:none;fill-rule:nonzero;fill:rgb(0%,0%,0%);fill-opacity:1;" d="M 111.46875 32.675781 C 111.242188 32.742188 111.078125 33.296875 111.078125 33.855469 L 111.113281 34.90625 L 111.339844 33.953125 C 111.601562 32.675781 112.285156 32.511719 112.449219 33.660156 L 112.578125 34.578125 L 112.546875 33.625 C 112.511719 32.644531 112.1875 32.382812 111.46875 32.675781 Z M 111.46875 32.675781 "/>
<path style=" stroke:none;fill-rule:nonzero;fill:rgb(0%,0%,0%);fill-opacity:1;" d="M 71.707031 33.757812 C 71.707031 34.378906 71.773438 34.640625 71.871094 34.316406 C 71.9375 34.019531 71.9375 33.496094 71.871094 33.167969 C 71.773438 32.871094 71.707031 33.136719 71.707031 33.757812 Z M 71.707031 33.757812 "/>
<path style=" stroke:none;fill-rule:nonzero;fill:rgb(0%,0%,0%);fill-opacity:1;" d="M 88.316406 33.757812 C 88.316406 34.378906 88.382812 34.640625 88.480469 34.316406 C 88.542969 34.019531 88.542969 33.496094 88.480469 33.167969 C 88.382812 32.871094 88.316406 33.136719 88.316406 33.757812 Z M 88.316406 33.757812 "/>
<path style=" stroke:none;fill-rule:nonzero;fill:rgb(0%,0%,0%);fill-opacity:1;" d="M 114.464844 33.265625 C 115.019531 34.804688 115.019531 35.167969 114.597656 35.429688 C 114.269531 35.625 114.238281 35.722656 114.5625 35.722656 C 114.988281 35.722656 115.738281 34.117188 115.445312 33.824219 C 115.34375 33.726562 115.28125 33.789062 115.28125 33.953125 C 115.246094 34.117188 115.019531 33.890625 114.757812 33.429688 C 114.433594 32.871094 114.335938 32.839844 114.464844 33.265625 Z M 114.464844 33.265625 "/>
</g>
</svg>
